# xmcd
#
# Track frame offsets: 
#        150
#        23846
#        36433
#        54845
#        79519
#        104300
#        121666
#        144843
#        169520
#        187555
#        203519
#        215902
#
# Disc length: 3138 seconds
#
# Revision: 0
# Processed by: cddbd v1.5.2PL0 Copyright (c) Steve Scherf et al.
# Submitted via: ExactAudioCopy v0.99pb5
#
DISCID=8d0c400c
DTITLE=Hans Thessink - Slow Train
DYEAR=1900
DGENRE=Blues
TTITLE0=1. Slow Train
TTITLE1=2. Katrina
TTITLE2=3. God Created The World
TTITLE3=4. Thula Mama - Oh Morther Don't You Weep
TTITLE4=5. Cry Cry Cry
TTITLE5=6. Let Go
TTITLE6=7. Love You Baby
TTITLE7=8. Old Man Trouble
TTITLE8=9. Leaving At Daybreak
TTITLE9=10. May The Road
TTITLE10=11. Run On For A Long Time
TTITLE11=12. When Luther Played The Blues
EXTD=
EXTT0=
EXTT1=
EXTT2=
EXTT3=
EXTT4=
EXTT5=
EXTT6=
EXTT7=
EXTT8=
EXTT9=
EXTT10=
EXTT11=
PLAYORDER=
